<?xml version="1.0" encoding="utf-8"?>
<!-- Generator: Adobe Illustrator 16.0.0, SVG Export Plug-In . SVG Version: 6.00 Build 0)  -->
<!DOCTYPE svg PUBLIC "-//W3C//DTD SVG 1.1//EN" "http://www.w3.org/Graphics/SVG/1.1/DTD/svg11.dtd">
<svg version="1.1" id="Layer_1" xmlns="http://www.w3.org/2000/svg" xmlns:xlink="http://www.w3.org/1999/xlink" x="0px" y="0px"
	 width="511.674px" height="146.429px" viewBox="0 0 511.674 146.429" enable-background="new 0 0 511.674 146.429"
	 xml:space="preserve">
<g>
	<g>
		<path fill-rule="evenodd" clip-rule="evenodd" fill="#FCFDFC" d="M97.658,68.204c-1.99-0.613-3.823-1.624-5.75-2.374
			c-0.05,0.098-0.083,0.132-0.078,0.152c1.883,5.732,7.29,7.981,12.849,5.904c0.418-0.155,0.492-0.347,0.352-0.767
			c-0.361-1.084-0.822-2.112-1.469-3.058c-2.478-3.625-7.492-5.041-11.236-3.134c1.819,1.086,3.788,1.844,5.481,3.077
			C97.759,68.071,97.708,68.138,97.658,68.204z"/>
		<path fill-rule="evenodd" clip-rule="evenodd" fill="#FCFDFC" d="M86.997,35.406c0.037,0.039,0.076,0.078,0.117,0.117
			c-1.102,2.757-2.827,5.189-4.218,7.9c7.333-1.892,11.639-8.643,9.793-16.315c-0.14-0.579-0.402-0.56-0.883-0.431
			c-2.293,0.62-4.387,1.629-6.139,3.24c-3.772,3.467-4.852,7.771-3.833,12.727c0.354-0.334,0.598-0.724,0.856-1.104
			C84.092,39.474,85.295,37.264,86.997,35.406z"/>
		<path fill-rule="evenodd" clip-rule="evenodd" fill="#FCFDFC" d="M39.781,35.366c1.89,2.227,3.285,4.802,4.987,7.202
			c0.074-0.125,0.125-0.176,0.137-0.236c1.521-7.125-2.44-13.91-10.272-15.902c-0.577-0.146-0.621,0.184-0.711,0.58
			c-0.524,2.285-0.561,4.567,0.019,6.848c1.161,4.564,5.434,8.677,9.778,9.316c-1.397-2.589-2.996-4.994-4.139-7.64
			C39.647,35.479,39.714,35.422,39.781,35.366z"/>
		<path fill-rule="evenodd" clip-rule="evenodd" fill="#FCFDFC" d="M91.545,58.021c3.106-0.748,5.992-1.737,9.031-2.085
			c-2.747,1.366-5.715,2.147-8.64,3.227c0.144,0.131,0.183,0.188,0.237,0.216c6.544,3.275,14.676,0.639,18.121-5.846
			c0.304-0.572,0.122-0.747-0.365-0.981c-1.722-0.827-3.525-1.335-5.422-1.551C99.448,50.429,93.777,53.438,91.545,58.021z"/>
		<path fill-rule="evenodd" clip-rule="evenodd" fill="#FCFDFC" d="M43.261,72.349c-0.835-0.374-1.587-0.363-2.319-0.444
			c-6.461-0.732-12.757,3.634-14.356,9.919c-0.139,0.545,0,0.745,0.504,0.86c4.302,0.967,8.349,0.492,11.969-2.188
			c2.387-1.767,3.924-4.14,4.887-7.152c-2.901,1.398-5.465,3.008-8.34,3.96C37.971,75.427,40.618,73.995,43.261,72.349z"/>
		<path fill-rule="evenodd" clip-rule="evenodd" fill="#FCFDFC" d="M35.125,57.846c-0.211-0.398-0.294-0.582-0.401-0.75
			c-3.862-6.073-11.7-8.106-18.078-4.724c-0.658,0.35-0.496,0.657-0.219,1.118c2.461,4.09,5.969,6.597,10.787,7.051
			c2.603,0.245,5.066-0.338,7.621-1.525c-3.097-1.119-6.08-1.897-8.834-3.292C29.04,56.088,31.933,57.066,35.125,57.846z"/>
		<path fill-rule="evenodd" clip-rule="evenodd" fill="#FCFDFC" d="M82.867,73.624c-0.07,0.112-0.107,0.145-0.099,0.164
			c2.414,7.582,9.713,10.911,16.888,9.045c0.553-0.144,0.493-0.428,0.37-0.829c-0.572-1.859-1.418-3.575-2.648-5.092
			c-3.295-4.071-9.297-5.974-13.908-4.403c0.169,0.34,0.533,0.418,0.813,0.592c1.928,1.198,3.867,2.375,5.789,3.582
			c0.289,0.18,0.777,0.315,0.576,0.929C88.006,76.258,85.433,74.938,82.867,73.624z"/>
		<path fill-rule="evenodd" clip-rule="evenodd" fill="#FCFDFC" d="M63.576,33.645c0.25-0.188,0.341-0.238,0.408-0.309
			c5.011-5.284,4.787-13.532-0.464-18.571c-0.531-0.51-0.754-0.271-1.131,0.104c-5.168,5.146-5.398,12.893-0.526,18.324
			c0.123,0.136,0.212,0.381,0.533,0.245c0.1-2.979,0.088-5.986,0.583-8.962C63.537,27.454,63.436,30.47,63.576,33.645z"/>
		<path fill-rule="evenodd" clip-rule="evenodd" fill="#FCFDFC" d="M68.27,62.545c-0.027-2.794-2.363-5.021-5.24-4.994
			c-2.874,0.026-5.162,2.296-5.139,5.099c0.023,2.79,2.359,5.014,5.242,4.99C66.014,67.615,68.293,65.354,68.27,62.545z"/>
		<path fill-rule="evenodd" clip-rule="evenodd" fill="#FCFDFC" d="M90.104,49.401c5.506,1.673,11.14-2.023,11.911-7.672
			c0.058-0.433-0.01-0.654-0.454-0.718c-0.75-0.106-1.491-0.266-2.241-0.333c-4.803-0.438-9.212,3.099-9.762,7.908
			c1.774-0.979,3.395-2.129,5.19-2.933c0.066,0.111,0.134,0.22,0.201,0.331C93.368,47.1,91.789,48.213,90.104,49.401z"/>
		<path fill-rule="evenodd" clip-rule="evenodd" fill="#FCFDFC" d="M31.051,45.908c0.053-0.093,0.105-0.182,0.158-0.272
			c1.908,0.69,3.51,1.997,5.358,2.91c-0.926-5.938-6.277-9.05-12.11-7.514c-0.336,0.089-0.409,0.267-0.35,0.605
			c0.636,3.688,2.915,6.892,6.813,7.848c1.666,0.408,3.332,0.412,5.146-0.063C34.293,48.18,32.672,47.043,31.051,45.908z"/>
		<path fill-rule="evenodd" clip-rule="evenodd" fill="#FCFDFC" d="M34.324,65.77c-2.002,0.824-3.81,1.792-5.756,2.39
			c-0.05-0.105-0.099-0.209-0.147-0.313c1.794-0.975,3.589-1.949,5.476-2.973c-5.649-2.076-11.005,0.52-12.729,6.036
			c-0.114,0.364-0.364,0.736,0.273,0.975C27.37,74.124,32.704,71.287,34.324,65.77z"/>
		<path fill-rule="evenodd" clip-rule="evenodd" fill="#FCFDFC" d="M46.793,84.251c-0.079-0.056-0.158-0.111-0.237-0.166
			c0.928-1.848,1.856-3.693,2.815-5.601c-5.317,1.163-8.911,6.103-6.793,12.288c0.183,0.535,0.492,0.477,0.874,0.37
			c1.365-0.383,2.655-0.922,3.812-1.759c3.271-2.364,4.566-6.802,2.968-10.366C49.018,80.745,48.182,82.695,46.793,84.251z"/>
		<path fill-rule="evenodd" clip-rule="evenodd" fill="#FCFDFC" d="M75.894,78.993c-1.889,4.391,0.204,9.447,4.796,11.403
			c3.074,1.312,2.782,1.413,3.342-1.767c0.838-4.766-2.65-9.547-7.274-10.099c0.503,0.977,0.996,1.913,1.477,2.856
			c1.152,2.265,1.147,2.265,0.998,2.978C78.112,82.562,77.019,80.802,75.894,78.993z"/>
		<path fill-rule="evenodd" clip-rule="evenodd" fill="#FCFDFC" d="M52.277,35.933c-0.821-2.083-1.598-4.058-2.376-6.03
			c0.092-0.047,0.184-0.094,0.274-0.14c1.196,1.799,1.979,3.843,3.05,5.832c2.427-5.485-0.197-11.134-5.791-12.807
			c-0.39-0.116-0.604-0.142-0.797,0.289C43.987,29,47.003,34.293,52.277,35.933z"/>
		<path fill-rule="evenodd" clip-rule="evenodd" fill="#FCFDFC" d="M72.908,35.618c1.037-2.004,1.834-3.975,3.087-5.695
			c-0.445,2.081-1.401,3.97-2.132,5.995c5.477-1.405,8.292-7.942,5.634-12.847c-0.22-0.403-0.413-0.403-0.805-0.285
			C73.101,24.461,70.498,30.065,72.908,35.618z"/>
		<path fill-rule="evenodd" clip-rule="evenodd" fill="#156C3D" d="M43.648,120.684c0.709-0.006,1.23-0.211,1.74-0.692
			c6.458-6.103,10.192-13.602,11.3-22.377c1.294-10.241-1-19.627-7.17-27.961c-3.687-4.979-8.435-8.639-14.214-10.91
			c0.587-0.26,0.588-0.263,1.447-0.087c10.227,2.091,17.489,8.099,22.503,17.062c0.942,1.683,1.69,3.458,2.335,5.275
			c0.643,1.814,1.123,3.675,1.589,5.589c1.552-7.018,4.506-13.311,9.498-18.533c5.02-5.25,11.062-8.558,18.377-9.382
			c-0.068,0.056-0.126,0.133-0.202,0.165c-10.41,4.416-17.032,12.276-19.953,23.021c-3.724,13.695-0.945,26.072,8.667,36.742
			c1.256,1.396,2.57,2.147,4.593,2.131"/>
		<path fill-rule="evenodd" clip-rule="evenodd" fill="#8FC743" d="M91.545,58.021c2.231-4.583,7.902-7.593,12.962-7.021
			c1.897,0.216,3.701,0.724,5.422,1.551c0.487,0.234,0.669,0.409,0.365,0.981c-3.445,6.484-11.577,9.121-18.121,5.846
			c-0.055-0.027-0.094-0.085-0.237-0.216c2.924-1.079,5.893-1.86,8.64-3.227C97.537,56.284,94.652,57.273,91.545,58.021z"/>
		<path fill-rule="evenodd" clip-rule="evenodd" fill="#8FC743" d="M43.261,72.349c-2.643,1.646-5.29,3.078-7.655,4.955
			c2.875-0.952,5.439-2.562,8.34-3.96c-0.963,3.013-2.5,5.386-4.887,7.152c-3.621,2.68-7.667,3.154-11.969,2.188
			c-0.504-0.115-0.643-0.315-0.504-0.86c1.599-6.285,7.895-10.651,14.356-9.919C41.673,71.985,42.426,71.975,43.261,72.349z"/>
		<path fill-rule="evenodd" clip-rule="evenodd" fill="#8FC743" d="M35.125,57.846c-3.193-0.779-6.086-1.758-9.125-2.122
			c2.755,1.395,5.738,2.173,8.834,3.292c-2.555,1.188-5.019,1.771-7.621,1.525c-4.818-0.454-8.326-2.961-10.787-7.051
			c-0.277-0.461-0.439-0.769,0.219-1.118c6.378-3.383,14.216-1.35,18.078,4.724C34.832,57.264,34.914,57.447,35.125,57.846z"/>
		<path fill-rule="evenodd" clip-rule="evenodd" fill="#8FC743" d="M82.867,73.624c2.566,1.313,5.14,2.634,7.782,3.987
			c0.201-0.613-0.288-0.749-0.576-0.929c-1.922-1.207-3.861-2.384-5.789-3.582c-0.28-0.174-0.644-0.252-0.813-0.592
			c4.611-1.57,10.612,0.332,13.908,4.403c1.23,1.517,2.076,3.232,2.648,5.092c0.123,0.401,0.183,0.686-0.37,0.829
			c-7.175,1.866-14.474-1.463-16.888-9.045C82.76,73.769,82.797,73.736,82.867,73.624z"/>
		<path fill-rule="evenodd" clip-rule="evenodd" fill="#8FC743" d="M39.58,35.534c1.144,2.646,2.743,5.051,4.14,7.64
			c-4.344-0.64-8.618-4.752-9.778-9.316c-0.58-2.28-0.543-4.563-0.019-6.848c0.091-0.396,0.134-0.726,0.711-0.58
			c7.832,1.992,11.793,8.777,10.272,15.902c-0.013,0.061-0.063,0.111-0.137,0.236c-1.703-2.4-3.098-4.976-4.987-7.202
			c-0.05-0.111-0.093-0.232-0.258-0.162c-0.022-0.053-0.043-0.105-0.065-0.158c-0.026,0.02-0.053,0.039-0.079,0.059
			c0.042,0.038,0.085,0.079,0.127,0.12C39.531,35.328,39.555,35.432,39.58,35.534z"/>
		<path fill-rule="evenodd" clip-rule="evenodd" fill="#8FC743" d="M63.576,33.645c-0.14-3.175-0.039-6.19-0.596-9.169
			c-0.495,2.976-0.483,5.982-0.583,8.962c-0.321,0.136-0.411-0.109-0.533-0.245c-4.872-5.432-4.643-13.179,0.526-18.324
			c0.377-0.374,0.6-0.613,1.131-0.104c5.25,5.039,5.475,13.287,0.464,18.571C63.917,33.406,63.826,33.456,63.576,33.645z"/>
		<path fill-rule="evenodd" clip-rule="evenodd" fill="#8FC743" d="M86.997,35.406c-1.702,1.857-2.905,4.067-4.308,6.134
			c-0.258,0.381-0.502,0.771-0.856,1.104c-1.019-4.955,0.061-9.26,3.833-12.727c1.752-1.611,3.846-2.62,6.139-3.24
			c0.481-0.129,0.743-0.148,0.883,0.431c1.846,7.673-2.46,14.424-9.793,16.315c1.391-2.711,3.116-5.144,4.216-7.9
			c0.02-0.085,0.076-0.225,0.05-0.24C87.044,35.207,87.024,35.323,86.997,35.406z"/>
		<path fill-rule="evenodd" clip-rule="evenodd" fill="#156C3D" d="M69.728,61.114c0.03,3.597-2.89,6.493-6.58,6.525
			c-3.694,0.03-6.684-2.817-6.714-6.392c-0.03-3.589,2.899-6.496,6.582-6.532C66.7,54.683,69.692,57.537,69.728,61.114z"/>
		<path fill-rule="evenodd" clip-rule="evenodd" fill="#156C3D" d="M51.766,52.819c0.016,1.769-1.422,3.194-3.236,3.209
			c-1.817,0.015-3.289-1.386-3.303-3.144c-0.015-1.766,1.427-3.195,3.238-3.213C50.277,49.655,51.75,51.059,51.766,52.819z"/>
		<path fill-rule="evenodd" clip-rule="evenodd" fill="#8FC743" d="M62.979,44.752c0.016,1.768-1.421,3.194-3.235,3.209
			c-1.817,0.015-3.289-1.386-3.303-3.144c-0.014-1.766,1.427-3.195,3.238-3.213C61.492,41.588,62.963,42.991,62.979,44.752z"/>
		<path fill-rule="evenodd" clip-rule="evenodd" fill="#156C3D" d="M75.278,46.321c0.015,1.769-1.422,3.194-3.235,3.21
			c-1.817,0.015-3.288-1.387-3.303-3.144c-0.014-1.766,1.428-3.196,3.237-3.214C73.79,43.159,75.262,44.563,75.278,46.321z"/>
		<path fill-rule="evenodd" clip-rule="evenodd" fill="#8FC743" d="M82.948,54.686c0.016,1.77-1.42,3.193-3.235,3.209
			c-1.817,0.017-3.288-1.385-3.303-3.143c-0.014-1.766,1.426-3.195,3.237-3.213C81.46,51.521,82.933,52.927,82.948,54.686z"/>
		<path fill-rule="evenodd" clip-rule="evenodd" fill="#156C3D" d="M90.104,49.401c1.685-1.188,3.265-2.302,4.845-3.416
			c-0.066-0.111-0.134-0.22-0.201-0.331c-1.796,0.804-3.416,1.954-5.19,2.933c0.55-4.81,4.959-8.347,9.762-7.908
			c0.75,0.067,1.492,0.227,2.241,0.333c0.443,0.063,0.511,0.285,0.454,0.718C101.243,47.378,95.609,51.074,90.104,49.401z"/>
		<path fill-rule="evenodd" clip-rule="evenodd" fill="#156C3D" d="M31.051,45.908c1.621,1.135,3.242,2.271,5.015,3.515
			c-1.815,0.475-3.48,0.471-5.146,0.063c-3.898-0.956-6.177-4.16-6.813-7.848c-0.059-0.339,0.014-0.517,0.35-0.605
			c5.833-1.536,11.184,1.575,12.11,7.514c-1.848-0.913-3.45-2.22-5.358-2.91C31.156,45.727,31.104,45.815,31.051,45.908z"/>
		<path fill-rule="evenodd" clip-rule="evenodd" fill="#156C3D" d="M97.807,68.006c-1.694-1.233-3.663-1.991-5.481-3.077
			c3.745-1.907,8.758-0.491,11.236,3.134c0.646,0.945,1.107,1.974,1.469,3.058c0.14,0.42,0.066,0.611-0.352,0.767
			c-5.56,2.077-10.966-0.172-12.849-5.904c-0.006-0.021,0.027-0.055,0.078-0.152c1.928,0.75,3.761,1.761,5.75,2.374
			c0.134,0.061,0.323,0.202,0.407,0.054C98.181,68.052,97.929,68.062,97.807,68.006z"/>
		<path fill-rule="evenodd" clip-rule="evenodd" fill="#156C3D" d="M34.324,65.77c-1.621,5.518-6.955,8.354-12.884,6.114
			c-0.637-0.238-0.387-0.61-0.273-0.975c1.724-5.517,7.08-8.112,12.729-6.036c-1.887,1.023-3.681,1.998-5.476,2.973
			c0.049,0.104,0.098,0.208,0.147,0.313C30.514,67.562,32.322,66.594,34.324,65.77z M28.386,68.089
			c-0.102-0.015-0.183-0.041-0.259-0.031c-0.041,0.005-0.074,0.07-0.11,0.108c0.083,0.034,0.164,0.08,0.25,0.096
			C28.29,68.267,28.329,68.175,28.386,68.089z"/>
		<path fill-rule="evenodd" clip-rule="evenodd" fill="#156C3D" d="M46.793,84.251c1.389-1.556,2.225-3.506,3.438-5.233
			c1.598,3.564,0.303,8.002-2.968,10.366c-1.156,0.837-2.447,1.376-3.812,1.759c-0.382,0.106-0.691,0.165-0.874-0.37
			c-2.117-6.186,1.477-11.125,6.793-12.288c-0.959,1.907-1.888,3.753-2.815,5.601C46.635,84.14,46.714,84.195,46.793,84.251z"/>
		<path fill-rule="evenodd" clip-rule="evenodd" fill="#156C3D" d="M75.894,78.993c1.125,1.809,2.218,3.568,3.339,5.372
			c0.149-0.713,0.154-0.713-0.998-2.978c-0.481-0.943-0.973-1.88-1.477-2.856c4.624,0.552,8.112,5.333,7.274,10.099
			c-0.561,3.18-0.269,3.078-3.342,1.767C76.098,88.44,74.005,83.384,75.894,78.993z"/>
		<path fill-rule="evenodd" clip-rule="evenodd" fill="#156C3D" d="M52.277,35.933c-5.274-1.64-8.29-6.933-5.639-12.855
			c0.192-0.431,0.407-0.405,0.797-0.289c5.593,1.673,8.217,7.321,5.791,12.807c-1.071-1.989-1.854-4.033-3.05-5.832
			c-0.091,0.046-0.183,0.093-0.274,0.14C50.679,31.875,51.456,33.85,52.277,35.933z"/>
		<path fill-rule="evenodd" clip-rule="evenodd" fill="#156C3D" d="M72.908,35.618c-2.411-5.553,0.192-11.157,5.784-12.832
			c0.393-0.118,0.585-0.118,0.805,0.285c2.658,4.904-0.157,11.441-5.634,12.847c0.731-2.025,1.687-3.914,2.132-5.995
			C74.743,31.644,73.945,33.614,72.908,35.618z"/>
		<path fill-rule="evenodd" clip-rule="evenodd" fill="#FCFDFC" d="M39.506,35.225c-0.042-0.041-0.084-0.082-0.127-0.12
			c0.026-0.02,0.052-0.039,0.079-0.059c0.022,0.053,0.043,0.105,0.065,0.158L39.506,35.225z"/>
		<path fill-rule="evenodd" clip-rule="evenodd" fill="#FCFDFC" d="M39.523,35.204c0.165-0.07,0.208,0.051,0.258,0.162
			c-0.067,0.056-0.134,0.112-0.201,0.168c-0.025-0.103-0.05-0.206-0.074-0.31L39.523,35.204z"/>
		<path fill-rule="evenodd" clip-rule="evenodd" fill="#FCFDFC" d="M86.997,35.406c0.027-0.083,0.047-0.199,0.165-0.123
			c0.025,0.016-0.031,0.155-0.05,0.24C87.073,35.484,87.034,35.445,86.997,35.406z"/>
		<path fill-rule="evenodd" clip-rule="evenodd" fill="#FCFDFC" d="M77.486,51.405c-0.023,0.044-0.049,0.09-0.074,0.134
			c-0.021-0.023-0.068-0.051-0.064-0.068c0.011-0.048,0.042-0.093,0.064-0.138C77.435,51.354,77.458,51.378,77.486,51.405z"/>
		<path fill-rule="evenodd" clip-rule="evenodd" fill="#FCFDFC" d="M97.807,68.006c0.122,0.056,0.374,0.046,0.257,0.252
			c-0.083,0.148-0.272,0.007-0.407-0.054C97.708,68.138,97.759,68.071,97.807,68.006z"/>
		<path fill-rule="evenodd" clip-rule="evenodd" fill="#FCFDFC" d="M28.386,68.089c-0.057,0.086-0.097,0.178-0.119,0.173
			c-0.087-0.016-0.167-0.062-0.25-0.096c0.036-0.038,0.07-0.104,0.11-0.108C28.203,68.048,28.284,68.074,28.386,68.089z"/>
	</g>
	<rect x="123.768" y="46.877" fill-rule="evenodd" clip-rule="evenodd" fill="none" width="387.907" height="61.214"/>
	<text transform="matrix(1 0 0 1 123.7676 64.5166)"><tspan x="0" y="0" fill="#156C3D" font-family="'TrajanPro-Regular'" font-size="26.0707">Centre </tspan><tspan x="113.328" y="0" fill="#8FC743" font-family="'Bellevue'" font-size="24">for</tspan><tspan x="141.84" y="0" fill="#156C3D" font-family="'TrajanPro-Regular'" font-size="24"> </tspan><tspan x="149.64" y="0" fill="#156C3D" font-family="'TrajanPro-Regular'" font-size="26.0707">Lifechange </tspan><tspan x="324.675" y="0" fill="#8FC743" font-family="'Bellevue'" font-size="24">and </tspan><tspan x="0" y="31.285" fill="#156C3D" font-family="'TrajanPro-Regular'" font-size="26.0707">Nutritional Healthcare</tspan></text>
	<rect x="123.207" y="108.09" fill="none" width="378.044" height="22.34"/>
	<text transform="matrix(1 0 0 1 123.207 120.585)" fill="#8FC743" font-family="'Bellevue'" font-size="17">Transforming Lifestyles for Health and Longevity</text>
</g>
</svg>
